<?xml version="1.0" encoding="UTF-8" standalone="no"?>
<!-- Created with Inkscape (http://www.inkscape.org/) -->

<svg
   xmlns:dc="http://purl.org/dc/elements/1.1/"
   xmlns:cc="http://creativecommons.org/ns#"
   xmlns:rdf="http://www.w3.org/1999/02/22-rdf-syntax-ns#"
   xmlns:svg="http://www.w3.org/2000/svg"
   xmlns="http://www.w3.org/2000/svg"
   xmlns:sodipodi="http://sodipodi.sourceforge.net/DTD/sodipodi-0.dtd"
   xmlns:inkscape="http://www.inkscape.org/namespaces/inkscape"
   version="1.1"
   id="svg2"
   xml:space="preserve"
   width="800"
   height="533.33331"
   viewBox="0 0 1600 1066.6666"
   sodipodi:docname="pints-logo.svg"
   inkscape:version="0.92.4 (33fec40, 2019-01-16)"><metadata
     id="metadata8"><rdf:RDF><cc:Work
         rdf:about=""><dc:format>image/svg+xml</dc:format><dc:type
           rdf:resource="http://purl.org/dc/dcmitype/StillImage" /><dc:title></dc:title></cc:Work></rdf:RDF></metadata><defs
     id="defs6" /><sodipodi:namedview
     pagecolor="#ffffff"
     bordercolor="#666666"
     borderopacity="1"
     objecttolerance="10"
     gridtolerance="10"
     guidetolerance="10"
     inkscape:pageopacity="0"
     inkscape:pageshadow="2"
     inkscape:window-width="3730"
     inkscape:window-height="2031"
     id="namedview4"
     showgrid="false"
     inkscape:zoom="0.88499993"
     inkscape:cx="737.67721"
     inkscape:cy="-142.57918"
     inkscape:window-x="110"
     inkscape:window-y="55"
     inkscape:window-maximized="1"
     inkscape:current-layer="g10"
     scale-x="2"
     fit-margin-top="0"
     fit-margin-left="0"
     fit-margin-right="0"
     fit-margin-bottom="0" /><g
     id="g10"
     inkscape:groupmode="layer"
     inkscape:label="pints-logo"
     transform="scale(1.3333333)"><g
       id="g12"><path
         d="M 0,0 H 1200 V 800 H 0 Z"
         style="fill:#f9f2f2;fill-opacity:1;fill-rule:nonzero;stroke:none"
         id="path14"
         inkscape:connector-curvature="0" /></g><g
       id="g16"><g
         id="g18"
         transform="scale(1200,800)"><path
           d="M 0,0 H 1 V 1 H 0 Z"
           style="fill:#405975;fill-opacity:1;fill-rule:nonzero;stroke:none"
           id="path20"
           inkscape:connector-curvature="0" /></g></g><g
       id="g22"
       transform="translate(117.26369,282.00455)"><g
         id="g24"
         transform="translate(-29.011105,-29.011105)"><path
           d="M 984.91937,290.6893 H 38.582398 C 17.441358,290.6893 0,273.24794 0,252.1069 V 38.582398 C 0,17.441358 17.441358,0 38.582398,0 H 984.65511 c 21.40529,0 38.58239,17.441358 38.58239,38.582398 V 251.57837 c 0.5285,21.66957 -16.9128,39.11093 -38.31813,39.11093 z"
           style="fill:#405975;fill-opacity:0.05;fill-rule:nonzero;stroke:none"
           id="path26"
           inkscape:connector-curvature="0" /></g><g
         id="g28"
         transform="translate(0,6.647631)"><g
           id="g30"
           transform="translate(0,-15.954315)"><path
             d="M 26.590524,16.951459 V 238.64995 h 33.902919 v -90.0754 h 15.289551 c 16.286696,0 36.561976,-2.32667 54.178196,-17.28384 18.28098,-15.62193 21.6048,-35.564823 21.6048,-48.527703 0,-20.275275 -8.9743,-41.547694 -27.58767,-53.845812 C 108.02401,18.280985 89.078256,16.951459 75.450612,16.951459 Z m 33.902919,31.243866 h 14.957169 c 38.556258,0 43.541988,21.937183 43.541988,34.2353 0,20.607655 -13.96003,34.900065 -43.209606,34.900065 H 60.493443 Z M 225.41513,16.951459 V 238.64995 h 33.90291 V 16.951459 Z M 385.68347,238.64995 V 83.760151 L 546.55614,252.2776 V 16.951459 H 512.65322 V 170.51174 L 351.78055,1.994289 V 238.64995 Z M 751.36361,48.860088 V 16.951459 H 615.75193 v 31.908629 h 50.85438 V 238.64995 h 33.90292 V 48.860088 Z m 192.17697,1.329526 C 938.88724,40.882931 932.57199,33.238155 926.58912,27.92005 919.60911,21.937182 905.98146,12.962881 882.04999,12.962881 c -41.54769,0 -64.8144,28.584813 -64.8144,58.499153 0,33.238156 26.9229,48.527706 45.20389,56.172486 l 21.27242,8.9743 c 14.62479,5.98287 31.90863,15.28955 31.90863,37.89149 0,22.26957 -15.95432,37.22674 -36.56197,37.22674 -13.29527,0 -22.60195,-5.31811 -28.9172,-13.29526 -5.3181,-6.98002 -9.30668,-17.28384 -9.30668,-28.25244 l -33.57054,7.3124 c 1.32953,15.28955 6.64763,29.91434 18.61337,43.2096 11.30097,12.6305 26.59052,22.26956 52.1839,22.26956 41.5477,0 71.46204,-28.91719 71.46204,-71.12965 0,-25.261 -11.30098,-48.5277 -52.18391,-65.14678 l -22.26956,-8.974304 c -21.6048,-8.64192 -23.93147,-20.275274 -23.93147,-26.922905 0,-14.292407 10.63621,-26.590525 31.24386,-26.590525 9.63907,0 16.95146,2.326671 23.93147,7.977158 4.98573,4.32096 7.97716,8.974302 9.97145,13.960025 z"
             style="fill:#bfc8d1;fill-opacity:1;fill-rule:nonzero;stroke:none"
             id="path32"
             inkscape:connector-curvature="0" /></g></g></g></g></svg>